<svg width="300" height="300" viewBox="0 0 300 300" fill="none" xmlns="http://www.w3.org/2000/svg">
<g clip-path="url(#clip0_141_2)">
<rect width="300" height="300" rx="35" fill="#FF0000"/>
<path d="M238.182 164.794C229.727 164.794 223.245 158.593 223.245 150.138C223.245 141.739 229.727 135.482 238.182 135.482C246.581 135.482 253.063 141.739 253.063 150.138C253.063 158.593 246.581 164.794 238.182 164.794ZM230.009 150.138C230.009 155.042 233.447 158.593 238.182 158.593C242.861 158.593 246.299 155.042 246.299 150.138C246.299 145.178 242.861 141.683 238.182 141.683C233.447 141.683 230.009 145.178 230.009 150.138Z" fill="white"/>
<path d="M206.861 164.794C198.406 164.794 191.923 158.593 191.923 150.138C191.923 141.739 198.406 135.482 206.861 135.482C215.26 135.482 221.742 141.739 221.742 150.138C221.742 158.593 215.26 164.794 206.861 164.794ZM198.688 150.138C198.688 155.042 202.126 158.593 206.861 158.593C211.539 158.593 214.978 155.042 214.978 150.138C214.978 145.178 211.539 141.683 206.861 141.683C202.126 141.683 198.688 145.178 198.688 150.138Z" fill="white"/>
<path d="M178.896 164.794C170.666 164.794 164.184 158.593 164.184 150.138C164.184 141.739 170.666 135.482 178.896 135.482C184.273 135.482 188.14 137.914 190.585 141.525C191.55 142.95 190.774 144.809 189.179 145.456C187.632 146.084 185.933 145.283 184.811 144.046C183.589 142.699 181.751 141.683 178.896 141.683C174.387 141.683 170.948 145.178 170.948 150.138C170.948 155.042 174.387 158.593 178.896 158.593C181.682 158.593 183.655 157.525 184.994 156.104C186.165 154.861 187.948 154.08 189.511 154.768C191.06 155.45 191.796 157.28 190.846 158.682C188.372 162.331 184.399 164.794 178.896 164.794Z" fill="white"/>
<path d="M162.024 164.324C159.149 164.324 157.965 162.746 157.289 159.589L154.019 144.764C153.23 141.157 152.046 139.973 150.186 139.973C148.213 139.973 147.03 141.269 147.03 144.088V160.519C147.03 162.309 145.579 163.76 143.789 163.76C141.998 163.76 140.547 162.309 140.547 160.519V141.269C140.547 137.155 143.084 135.013 146.241 135.013C149.341 135.013 150.75 136.478 153.061 140.029L164.786 158.067C165.406 159.025 165.687 159.984 165.687 160.773C165.687 162.858 163.884 164.324 162.024 164.324Z" fill="white"/>
<path d="M40.8519 164.794C37.7516 164.794 36.5115 163.159 33.9186 159.777L30.5929 155.437C28.5637 152.787 28 151.998 28 150.645C28 148.729 29.3528 146.925 31.4948 146.925C33.8059 146.925 35.2714 148.785 35.2714 150.702C35.2714 151.716 34.9896 152.562 34.2005 153.858C33.524 154.986 33.2422 155.493 33.2422 156.282C33.2422 158.424 34.6514 159.833 36.7934 159.833C38.9917 159.833 40.2318 158.424 40.2318 155.437V132.1C40.2318 130.388 41.6198 129 43.332 129C45.0443 129 46.4323 130.388 46.4323 132.1V158.537C46.4323 162.652 43.9521 164.794 40.8519 164.794Z" fill="white"/>
<path d="M260.147 164.794C263.247 164.794 264.487 163.159 267.08 159.777L270.406 155.437C272.435 152.787 272.999 151.998 272.999 150.645C272.999 148.729 271.646 146.925 269.504 146.925C267.193 146.925 265.727 148.785 265.727 150.702C265.727 151.716 266.009 152.562 266.798 153.858C267.475 154.986 267.757 155.493 267.757 156.282C267.757 158.424 266.347 159.833 264.205 159.833C262.007 159.833 260.767 158.424 260.767 155.437V132.1C260.767 130.388 259.379 129 257.667 129C255.955 129 254.566 130.388 254.566 132.1V158.537C254.566 162.652 257.047 164.794 260.147 164.794Z" fill="white"/>
<path d="M93.518 135.412C101.748 135.412 108.174 141.612 108.174 150.067C108.174 158.466 101.635 164.723 93.518 164.723C89.3468 164.723 85.7956 163.088 83.1463 160.439C82.4399 159.732 81.399 160.603 81.399 161.602C81.399 161.662 81.399 161.725 81.399 161.792V169.909C81.399 170.625 80.8185 171.205 80.1025 171.205C79.3865 171.205 78.806 170.625 78.806 169.909V137.272C78.806 136.556 79.3865 135.975 80.1025 135.975C80.8185 135.975 81.399 136.556 81.399 137.272V138.512C81.399 138.559 81.3989 138.605 81.3988 138.648C81.3967 139.691 82.3521 140.49 83.09 139.752C85.7956 137.046 89.2904 135.412 93.518 135.412ZM85.1192 150.067C85.1192 155.028 88.5577 158.522 93.2362 158.522C97.9711 158.522 101.41 155.028 101.41 150.067C101.41 145.163 97.9711 141.612 93.2362 141.612C88.5577 141.612 85.1192 145.163 85.1192 150.067Z" fill="white"/>
<path d="M62.5909 164.723C54.3612 164.723 47.9352 158.522 47.9352 150.067C47.9352 141.668 54.4739 135.412 62.5909 135.412C66.7621 135.412 70.3133 137.046 72.9626 139.696C73.6928 140.426 74.5716 140.108 74.6537 139.079C74.6709 138.863 74.6896 138.619 74.71 138.343V137.272C74.71 136.556 75.2904 135.975 76.0064 135.975C76.7224 135.975 77.3029 136.556 77.3029 137.272V162.863C77.3029 163.579 76.7224 164.159 76.0064 164.159C75.2904 164.159 74.71 163.579 74.71 162.863V161.623C74.71 161.551 74.714 161.478 74.7209 161.404C74.8347 160.186 73.8835 159.518 73.0189 160.383C70.3133 163.088 66.8185 164.723 62.5909 164.723ZM54.6994 150.067C54.6994 154.971 58.1378 158.522 62.8727 158.522C67.5512 158.522 70.9897 154.971 70.9897 150.067C70.9897 145.107 67.5512 141.612 62.8727 141.612C58.1378 141.612 54.6994 145.107 54.6994 150.067Z" fill="white"/>
<path d="M124.332 164.324C116.103 164.324 109.677 158.123 109.677 149.668C109.677 141.269 116.215 135.013 124.332 135.013C128.504 135.013 132.055 136.647 134.704 139.297C135.434 140.027 136.313 139.709 136.395 138.68C136.412 138.464 136.431 138.22 136.452 137.944V136.873C136.452 136.157 137.032 135.576 137.748 135.576C138.464 135.576 139.044 136.157 139.044 136.873V162.464C139.044 163.18 138.464 163.76 137.748 163.76C137.032 163.76 136.452 163.18 136.452 162.464V161.224C136.452 161.152 136.456 161.079 136.462 161.005C136.576 159.787 135.625 159.119 134.76 159.984C132.055 162.689 128.56 164.324 124.332 164.324ZM116.441 149.668C116.441 154.572 119.879 158.123 124.614 158.123C129.293 158.123 132.731 154.572 132.731 149.668C132.731 144.708 129.293 141.213 124.614 141.213C119.879 141.213 116.441 144.708 116.441 149.668Z" fill="white"/>
</g>
<defs>
<clipPath id="clip0_141_2">
<rect width="300" height="300" rx="35" fill="white"/>
</clipPath>
</defs>
</svg>
