<svg width="300" height="300" viewBox="0 0 300 300" fill="none" xmlns="http://www.w3.org/2000/svg">
<g clip-path="url(#clip0_141_14)">
<rect width="300" height="300" rx="26" fill="url(#paint0_angular_141_14)"/>
<path d="M115.061 257.36C98.8115 257.36 92.3117 248.793 78.7213 231.066L61.2902 208.317C50.6542 194.431 47.6998 190.295 47.6998 183.204C47.6998 173.159 54.7904 163.705 66.0173 163.705C78.1305 163.705 85.812 173.454 85.812 183.5C85.812 188.818 84.3348 193.249 80.1986 200.044C76.6532 205.953 75.176 208.612 75.176 212.748C75.176 223.975 82.5621 231.361 93.789 231.361C105.311 231.361 111.811 223.975 111.811 208.317V58.3053C111.811 49.331 119.086 42.0559 128.06 42.0559C137.035 42.0559 144.31 49.331 144.31 58.3053V224.566C144.31 246.134 131.31 257.36 115.061 257.36Z" fill="#10100E"/>
<path d="M185.672 43.9026C201.921 43.9026 208.421 52.4704 222.011 70.1971L239.443 92.9462C250.079 106.832 253.033 110.968 253.033 118.059C253.033 128.104 245.942 137.558 234.715 137.558C222.602 137.558 214.921 127.809 214.921 117.763C214.921 112.446 216.398 108.014 220.534 101.219C224.079 95.3098 225.557 92.6508 225.557 88.5146C225.557 77.2877 218.171 69.9016 206.944 69.9016C195.421 69.9016 188.922 77.2877 188.922 92.9462L188.922 219.509C188.922 226.137 183.549 231.509 176.922 231.509L168.423 231.509C161.795 231.509 156.423 226.137 156.423 219.509L156.423 76.6968C156.423 55.1294 169.422 43.9026 185.672 43.9026Z" fill="#10100E"/>
<path d="M185.672 256.622C201.921 256.622 208.421 248.054 222.011 230.327L239.443 207.578C250.079 193.692 253.033 189.556 253.033 182.466C253.033 172.421 245.942 162.966 234.715 162.966C222.602 162.966 214.921 172.716 214.921 182.761C214.921 188.079 216.398 192.511 220.534 199.306C224.079 205.215 225.557 207.874 225.557 212.01C225.557 223.237 218.171 230.623 206.944 230.623C195.421 230.623 188.922 223.237 188.922 207.578L188.922 81.0153C188.922 74.3878 183.549 69.0153 176.922 69.0153L168.423 69.0153C161.795 69.0153 156.423 74.3878 156.423 81.0153L156.423 223.828C156.423 245.395 169.422 256.622 185.672 256.622Z" fill="#10100E"/>
</g>
<defs>
<radialGradient id="paint0_angular_141_14" cx="0" cy="0" r="1" gradientUnits="userSpaceOnUse" gradientTransform="translate(149.231 150.769) rotate(-90) scale(161.538 926.911)">
<stop offset="0.00548375" stop-color="#29DCE5"/>
<stop offset="0.02324" stop-color="#FFA0DF"/>
<stop offset="0.0512067" stop-color="#FFDCDD"/>
<stop offset="0.111739" stop-color="#FEFBCE"/>
<stop offset="0.278704" stop-color="#FCFFF8"/>
<stop offset="0.328436" stop-color="#EBF6F2"/>
<stop offset="0.456763" stop-color="#01DCEB"/>
<stop offset="0.483029" stop-color="#0391EA"/>
<stop offset="0.500068" stop-color="#FE94D0"/>
<stop offset="0.513973" stop-color="#FAFAC6"/>
<stop offset="0.607908" stop-color="#FAA6E2"/>
<stop offset="0.732893" stop-color="#E9F5F1"/>
<stop offset="0.928203" stop-color="#FAFAF2"/>
<stop offset="0.950817" stop-color="#EBF6F2"/>
<stop offset="0.987746" stop-color="#9A9AEF"/>
</radialGradient>
<clipPath id="clip0_141_14">
<rect width="300" height="300" rx="26" fill="white"/>
</clipPath>
</defs>
</svg>
